<svg width="48" height="32" viewBox="0 0 48 32" fill="none" xmlns="http://www.w3.org/2000/svg">
<path d="M2.99998 31.5C2.25772 31.5 1.63598 31.252 1.13474 30.756C0.633498 30.26 0.382005 29.6469 0.380258 28.9167C0.378512 28.1864 0.630005 27.5733 1.13474 27.0773C1.63947 26.5813 2.26122 26.3333 2.99998 26.3333H44.9155C45.6577 26.3333 46.2803 26.5813 46.7833 27.0773C47.2863 27.5733 47.5369 28.1864 47.5352 28.9167C47.5334 29.6469 47.2819 30.2609 46.7807 30.7586C46.2795 31.2563 45.6577 31.5034 44.9155 31.5H2.99998ZM2.99998 18.5833C2.25772 18.5833 1.63598 18.3353 1.13474 17.8393C0.633498 17.3433 0.382005 16.7302 0.380258 16C0.378512 15.2698 0.630005 14.6567 1.13474 14.1607C1.63947 13.6647 2.26122 13.4167 2.99998 13.4167H44.9155C45.6577 13.4167 46.2803 13.6647 46.7833 14.1607C47.2863 14.6567 47.5369 15.2698 47.5352 16C47.5334 16.7302 47.2819 17.3442 46.7807 17.8419C46.2795 18.3396 45.6577 18.5868 44.9155 18.5833H2.99998ZM2.99998 5.66667C2.25772 5.66667 1.63598 5.41867 1.13474 4.92267C0.633498 4.42667 0.382005 3.81356 0.380258 3.08333C0.378512 2.35311 0.630005 1.74 1.13474 1.244C1.63947 0.748 2.26122 0.5 2.99998 0.5H44.9155C45.6577 0.5 46.2803 0.748 46.7833 1.244C47.2863 1.74 47.5369 2.35311 47.5352 3.08333C47.5334 3.81356 47.2819 4.42753 46.7807 4.92525C46.2795 5.42297 45.6577 5.67011 44.9155 5.66667H2.99998Z" fill="#5B544A"/>
</svg>
