<svg width="25" height="25" viewBox="0 0 25 25" fill="none" xmlns="http://www.w3.org/2000/svg">
<path d="M16.1636 9.72222L14.8355 9.49444C14.8035 9.69333 14.8138 9.89702 14.8657 10.0914C14.9177 10.2857 15.0101 10.4661 15.1365 10.6199C15.2628 10.7738 15.4202 10.8974 15.5976 10.9822C15.7749 11.067 15.9681 11.111 16.1636 11.1111V9.72222ZM1.34697 9.72222V8.33333C0.989731 8.33333 0.647124 8.47966 0.394518 8.74013C0.141912 9.0006 0 9.35387 0 9.72222H1.34697ZM4.04091 25H19.3425V22.2222H4.04091V25ZM20.9588 8.33333H16.1636V11.1111H20.9588V8.33333ZM17.4917 9.95L18.5774 3.23472L15.9212 2.77778L14.8369 9.49444L17.4917 9.95ZM15.9212 1.50697e-07H15.6343V2.77778H15.9212V1.50697e-07ZM11.1502 2.47361L7.76124 7.71528L10.0026 9.25694L13.3889 4.01389L11.1502 2.47361ZM6.64056 8.33333H1.34697V11.1111H6.64056V8.33333ZM0 9.72222V20.8333H2.69394V9.72222H0ZM23.3053 21.65L24.9216 13.3167L22.2802 12.7722L20.6639 21.1056L23.3053 21.65ZM7.76124 7.71528C7.63819 7.90544 7.47153 8.06134 7.27603 8.16916C7.08054 8.27697 6.86226 8.33337 6.64056 8.33333V11.1111C7.30578 11.1111 7.96071 10.9417 8.5472 10.618C9.13369 10.2943 9.63361 9.8263 10.0026 9.25555L7.76124 7.71528ZM18.5774 3.23472C18.6417 2.83686 18.6213 2.42932 18.5175 2.04043C18.4136 1.65154 18.2289 1.29063 17.9761 0.9828C17.7233 0.674967 17.4086 0.427591 17.0537 0.257869C16.6988 0.0881477 16.3124 0.000152246 15.9212 1.50697e-07V2.77778L18.5774 3.23472ZM20.9588 11.1111C21.1582 11.111 21.355 11.1566 21.5352 11.2444C21.7154 11.3323 21.8744 11.4603 22.0008 11.6192C22.1272 11.7781 22.2179 11.9639 22.2662 12.1633C22.3145 12.3627 22.3193 12.5707 22.2802 12.7722L24.9216 13.3167C25.0388 12.7122 25.0244 12.0884 24.8796 11.4903C24.7347 10.8923 24.4629 10.3348 24.0839 9.85809C23.7048 9.3814 23.2279 8.99737 22.6875 8.73371C22.1471 8.47004 21.5567 8.33329 20.9588 8.33333V11.1111ZM19.3425 25C20.2768 25.0001 21.1822 24.6663 21.9047 24.0555C22.6272 23.4447 23.1221 22.5947 23.3053 21.65L20.6639 21.1056C20.6028 21.4203 20.438 21.7035 20.1974 21.9071C19.9567 22.1107 19.6538 22.222 19.3425 22.2222V25ZM15.6329 1.50697e-07C14.7458 -0.00021289 13.8723 0.22546 13.0901 0.65698C12.3078 1.0885 11.6424 1.71251 11.1502 2.47361L13.3916 4.01528C13.6375 3.6347 13.9708 3.32262 14.3618 3.10674C14.7528 2.89086 15.1894 2.77786 15.6329 2.77778V1.50697e-07ZM4.04091 22.2222C3.68367 22.2222 3.34106 22.0759 3.08846 21.8154C2.83585 21.555 2.69394 21.2017 2.69394 20.8333H0C0 21.9384 0.425737 22.9982 1.18355 23.7796C1.94137 24.561 2.96919 25 4.04091 25V22.2222Z" fill="#585655"/>
</svg>
