<svg width="25" height="25" viewBox="0 0 25 25" fill="none" xmlns="http://www.w3.org/2000/svg">
<path opacity="0.3" d="M12.5 6.77081C10.5847 6.76444 8.70638 7.29871 7.08112 8.31219C5.45587 9.32567 4.1496 10.7772 3.3125 12.5C5.03125 16.0104 8.54167 18.2291 12.5 18.2291C16.4583 18.2291 19.9688 16.0104 21.6875 12.5C20.8504 10.7772 19.5441 9.32567 17.9189 8.31219C16.2936 7.29871 14.4154 6.76444 12.5 6.77081ZM12.5 17.1875C9.91667 17.1875 7.8125 15.0833 7.8125 12.5C7.8125 9.91664 9.91667 7.81247 12.5 7.81247C15.0833 7.81247 17.1875 9.91664 17.1875 12.5C17.1875 15.0833 15.0833 17.1875 12.5 17.1875Z" fill="#585655"/>
<path d="M12.5 4.6875C7.29169 4.6875 2.84377 7.92708 1.04169 12.5C2.84377 17.0729 7.29169 20.3125 12.5 20.3125C17.7084 20.3125 22.1563 17.0729 23.9584 12.5C22.1563 7.92708 17.7084 4.6875 12.5 4.6875ZM12.5 18.2292C10.5847 18.2355 8.7064 17.7013 7.08114 16.6878C5.45589 15.6743 4.14962 14.2227 3.31252 12.5C5.03127 8.98958 8.5521 6.77083 12.5 6.77083C16.4479 6.77083 19.9688 8.98958 21.6875 12.5C20.8504 14.2227 19.5442 15.6743 17.9189 16.6878C16.2936 17.7013 14.4154 18.2355 12.5 18.2292ZM12.5 7.8125C9.91669 7.8125 7.81252 9.91667 7.81252 12.5C7.81252 15.0833 9.91669 17.1875 12.5 17.1875C15.0834 17.1875 17.1875 15.0833 17.1875 12.5C17.1875 9.91667 15.0834 7.8125 12.5 7.8125ZM12.5 15.1042C11.8094 15.1042 11.147 14.8298 10.6586 14.3414C10.1702 13.853 9.89585 13.1907 9.89585 12.5C9.89585 11.8093 10.1702 11.147 10.6586 10.6586C11.147 10.1702 11.8094 9.89583 12.5 9.89583C13.1907 9.89583 13.8531 10.1702 14.3414 10.6586C14.8298 11.147 15.1042 11.8093 15.1042 12.5C15.1042 13.1907 14.8298 13.853 14.3414 14.3414C13.8531 14.8298 13.1907 15.1042 12.5 15.1042Z" fill="#585655"/>
</svg>
